<svg xmlns="http://www.w3.org/2000/svg" version="1.1" xmlns:xlink="http://www.w3.org/1999/xlink" xmlns:svgjs="http://svgjs.dev/svgjs" style="overflow: hidden; height: 85vh;" viewBox="0 0 1920 1080" class="overflow-hidden rounded-md drop-shadow-lg transition duration-300"><rect width="1920" height="1080" fill="#101f60"/><g clip-path="url(&quot;#SvgjsClipPath1826&quot;)"><g transform="matrix(0.3744033776257297,-1.0873463619392145,1.0873463619392145,0.3744033776257297,3.4769637696725795,1364.4175584424731)"><path d="M0,-1080C6.804833285552455,-1001.7218051963351,34.01049979449799,-761.8970875511378,40.82899971331473,-610.3308311780106C47.64749963213147,-458.7645748048834,52.73182228323974,-327.7971048276022,40.91099951290046,-170.60246176123673C29.090176742561184,-13.407818694871281,-21.90775522979726,166.75335593757333,-30.095936908720944,332.83702722018216C-38.28411858764463,498.92069850279097,-13.531234978058144,676.5543776239217,-8.218090560641642,825.8995659344162C-2.904946143225138,975.2447542449106,-0.7890904606339113,1078.1749918938779,1.7829295957780786,1228.908157083149C4.354949652190069,1379.6413222724202,7.511184710459978,1575.1165832505683,7.214029777830298,1730.2985570700434C6.916874845200618,1885.4805308895186,1.2023382963050497,2088.383092845007,0,2160L 1920 2160 L 1920 -1080 Z" fill="url(&quot;#SvgjsLinearGradient1824&quot;)"/><path d="M960,-1080C954.0129264772215,-993.9536291408015,932.926370487291,-719.077461638061,924.0775588633288,-563.7217748448086C915.2287472393666,-408.3660880515562,901.9126636157234,-294.88873995326674,906.9071302562268,-147.86587924048547C911.9015968967301,-0.8430185277042028,943.6247164459418,169.28728465936976,954.0443587063485,318.4153894318791C964.4640009667552,467.54349420438837,976.4615533739559,588.2611396801069,969.424983818667,746.9027493945704C962.3884142633781,905.5443591090338,914.3335563015137,1116.623252967941,911.8249413746149,1270.2650477186598C909.3163264477162,1423.9068424693787,946.3441178197102,1520.4643591853276,954.3732942572743,1668.7535178988842C962.4024706948385,1817.0426766124408,959.0622157095457,2078.1255863164806,960,2160L 1920 2160 L 1920 -1080 Z" fill="url(&quot;#SvgjsLinearGradient1825&quot;)"/></g></g><defs><linearGradient x1="0.1" y1="0" x2="0" y2="1" id="SvgjsLinearGradient1824"><stop stop-color="#101f60" offset="0"/><stop stop-color="#102c60" offset="0"/></linearGradient><linearGradient x1="0.1" y1="0" x2="0" y2="1" id="SvgjsLinearGradient1825"><stop stop-color="#0b1643" offset="0"/><stop stop-color="#0b1f43" offset="0.5"/></linearGradient><clipPath id="SvgjsClipPath1826"><rect width="1920" height="1080"/></clipPath></defs></svg>